<?xml version="1.0" encoding="utf-8" ?>
<svg baseProfile="full" height="200px" version="1.1" width="210px" xmlns="http://www.w3.org/2000/svg" xmlns:ev="http://www.w3.org/2001/xml-events" xmlns:xlink="http://www.w3.org/1999/xlink"><defs /><rect fill="rgb(0,0,0)" height="11px" width="11px" x="0px" y="0px" /><rect fill="rgb(0,0,0)" height="11px" width="11px" x="10px" y="0px" /><rect fill="rgb(0,0,0)" height="11px" width="11px" x="20px" y="0px" /><rect fill="rgb(0,0,0)" height="11px" width="11px" x="30px" y="0px" /><rect fill="rgb(0,0,0)" height="11px" width="11px" x="50px" y="0px" /><rect fill="rgb(0,0,0)" height="11px" width="11px" x="60px" y="0px" /><rect fill="rgb(0,0,0)" height="11px" width="11px" x="70px" y="0px" /><rect fill="rgb(0,0,0)" height="11px" width="11px" x="90px" y="0px" /><rect fill="rgb(0,0,0)" height="11px" width="11px" x="100px" y="0px" /><rect fill="rgb(0,0,0)" height="11px" width="11px" x="110px" y="0px" /><rect fill="rgb(0,0,0)" height="11px" width="11px" x="120px" y="0px" /><rect fill="rgb(0,0,0)" height="11px" width="11px" x="130px" y="0px" /><rect fill="rgb(0,0,0)" height="11px" width="11px" x="140px" y="0px" /><rect fill="rgb(0,0,0)" height="11px" width="11px" x="150px" y="0px" /><rect fill="rgb(0,0,0)" height="11px" width="11px" x="160px" y="0px" /><rect fill="rgb(0,0,0)" height="11px" width="11px" x="170px" y="0px" /><rect fill="rgb(0,0,0)" height="11px" width="11px" x="180px" y="0px" /><rect fill="rgb(0,0,0)" height="11px" width="11px" x="190px" y="0px" /><rect fill="rgb(0,0,0)" height="11px" width="11px" x="200px" y="0px" /><rect fill="rgb(0,0,0)" height="11px" width="11px" x="0px" y="10px" /><rect fill="rgb(255,0,0)" height="11px" width="11px" x="10px" y="10px" /><rect fill="rgb(255,0,0)" height="11px" width="11px" x="20px" y="10px" /><rect fill="rgb(0,0,0)" height="11px" width="11px" x="30px" y="10px" /><rect fill="rgb(0,0,0)" height="11px" width="11px" x="40px" y="10px" /><rect fill="rgb(0,0,0)" height="11px" width="11px" x="50px" y="10px" /><rect fill="rgb(255,0,0)" height="11px" width="11px" x="60px" y="10px" /><rect fill="rgb(0,0,0)" height="11px" width="11px" x="70px" y="10px" /><rect fill="rgb(0,0,0)" height="11px" width="11px" x="80px" y="10px" /><rect fill="rgb(0,0,0)" height="11px" width="11px" x="90px" y="10px" /><rect fill="rgb(255,0,0)" height="11px" width="11px" x="100px" y="10px" /><rect fill="rgb(255,0,0)" height="11px" width="11px" x="110px" y="10px" /><rect fill="rgb(0,0,0)" height="11px" width="11px" x="120px" y="10px" /><rect fill="rgb(255,0,0)" height="11px" width="11px" x="130px" y="10px" /><rect fill="rgb(255,0,0)" height="11px" width="11px" x="140px" y="10px" /><rect fill="rgb(255,0,0)" height="11px" width="11px" x="150px" y="10px" /><rect fill="rgb(0,0,0)" height="11px" width="11px" x="160px" y="10px" /><rect fill="rgb(255,0,0)" height="11px" width="11px" x="170px" y="10px" /><rect fill="rgb(255,0,0)" height="11px" width="11px" x="180px" y="10px" /><rect fill="rgb(255,0,0)" height="11px" width="11px" x="190px" y="10px" /><rect fill="rgb(0,0,0)" height="11px" width="11px" x="200px" y="10px" /><rect fill="rgb(0,0,0)" height="11px" width="11px" x="0px" y="20px" /><rect fill="rgb(255,8,17)" height="11px" width="11px" x="10px" y="20px" /><rect fill="rgb(0,0,0)" height="11px" width="11px" x="20px" y="20px" /><rect fill="rgb(255,0,0)" height="11px" width="11px" x="30px" y="20px" /><rect fill="rgb(0,0,0)" height="11px" width="11px" x="40px" y="20px" /><rect fill="rgb(255,0,0)" height="11px" width="11px" x="50px" y="20px" /><rect fill="rgb(0,0,0)" height="11px" width="11px" x="60px" y="20px" /><rect fill="rgb(255,0,0)" height="11px" width="11px" x="70px" y="20px" /><rect fill="rgb(0,0,0)" height="11px" width="11px" x="80px" y="20px" /><rect fill="rgb(255,0,0)" height="11px" width="11px" x="90px" y="20px" /><rect fill="rgb(0,0,0)" height="11px" width="11px" x="100px" y="20px" /><rect fill="rgb(0,0,0)" height="11px" width="11px" x="110px" y="20px" /><rect fill="rgb(0,0,0)" height="11px" width="11px" x="120px" y="20px" /><rect fill="rgb(0,0,0)" height="11px" width="11px" x="130px" y="20px" /><rect fill="rgb(255,0,0)" height="11px" width="11px" x="140px" y="20px" /><rect fill="rgb(0,0,0)" height="11px" width="11px" x="150px" y="20px" /><rect fill="rgb(0,0,0)" height="11px" width="11px" x="160px" y="20px" /><rect fill="rgb(255,0,0)" height="11px" width="11px" x="170px" y="20px" /><rect fill="rgb(0,0,0)" height="11px" width="11px" x="180px" y="20px" /><rect fill="rgb(0,0,0)" height="11px" width="11px" x="190px" y="20px" /><rect fill="rgb(0,0,0)" height="11px" width="11px" x="200px" y="20px" /><rect fill="rgb(0,0,0)" height="11px" width="11px" x="0px" y="30px" /><rect fill="rgb(255,0,0)" height="11px" width="11px" x="10px" y="30px" /><rect fill="rgb(255,0,0)" height="11px" width="11px" x="20px" y="30px" /><rect fill="rgb(0,0,0)" height="11px" width="11px" x="30px" y="30px" /><rect fill="rgb(0,0,0)" height="11px" width="11px" x="40px" y="30px" /><rect fill="rgb(255,0,0)" height="11px" width="11px" x="50px" y="30px" /><rect fill="rgb(255,0,0)" height="11px" width="11px" x="60px" y="30px" /><rect fill="rgb(255,0,0)" height="11px" width="11px" x="70px" y="30px" /><rect fill="rgb(0,0,0)" height="11px" width="11px" x="80px" y="30px" /><rect fill="rgb(0,0,0)" height="11px" width="11px" x="90px" y="30px" /><rect fill="rgb(255,0,0)" height="11px" width="11px" x="100px" y="30px" /><rect fill="rgb(0,0,0)" height="11px" width="11px" x="110px" y="30px" /><rect fill="rgb(0,0,0)" height="11px" width="11px" x="120px" y="30px" /><rect fill="rgb(0,0,0)" height="11px" width="11px" x="130px" y="30px" /><rect fill="rgb(255,0,0)" height="11px" width="11px" x="140px" y="30px" /><rect fill="rgb(0,0,0)" height="11px" width="11px" x="150px" y="30px" /><rect fill="rgb(0,0,0)" height="11px" width="11px" x="160px" y="30px" /><rect fill="rgb(255,0,0)" height="11px" width="11px" x="170px" y="30px" /><rect fill="rgb(255,0,0)" height="11px" width="11px" x="180px" y="30px" /><rect fill="rgb(0,0,0)" height="11px" width="11px" x="190px" y="30px" /><rect fill="rgb(0,0,0)" height="11px" width="11px" x="0px" y="40px" /><rect fill="rgb(255,0,0)" height="11px" width="11px" x="10px" y="40px" /><rect fill="rgb(0,0,0)" height="11px" width="11px" x="20px" y="40px" /><rect fill="rgb(0,0,0)" height="11px" width="11px" x="30px" y="40px" /><rect fill="rgb(0,0,0)" height="11px" width="11px" x="40px" y="40px" /><rect fill="rgb(255,0,0)" height="11px" width="11px" x="50px" y="40px" /><rect fill="rgb(0,0,0)" height="11px" width="11px" x="60px" y="40px" /><rect fill="rgb(255,0,0)" height="11px" width="11px" x="70px" y="40px" /><rect fill="rgb(0,0,0)" height="11px" width="11px" x="80px" y="40px" /><rect fill="rgb(0,0,0)" height="11px" width="11px" x="90px" y="40px" /><rect fill="rgb(0,0,0)" height="11px" width="11px" x="100px" y="40px" /><rect fill="rgb(255,0,0)" height="11px" width="11px" x="110px" y="40px" /><rect fill="rgb(0,0,0)" height="11px" width="11px" x="120px" y="40px" /><rect fill="rgb(0,0,0)" height="11px" width="11px" x="130px" y="40px" /><rect fill="rgb(255,0,0)" height="11px" width="11px" x="140px" y="40px" /><rect fill="rgb(0,0,0)" height="11px" width="11px" x="150px" y="40px" /><rect fill="rgb(0,0,0)" height="11px" width="11px" x="160px" y="40px" /><rect fill="rgb(255,0,0)" height="11px" width="11px" x="170px" y="40px" /><rect fill="rgb(0,0,0)" height="11px" width="11px" x="180px" y="40px" /><rect fill="rgb(0,0,0)" height="11px" width="11px" x="190px" y="40px" /><rect fill="rgb(0,0,0)" height="11px" width="11px" x="200px" y="40px" /><rect fill="rgb(0,0,0)" height="11px" width="11px" x="0px" y="50px" /><rect fill="rgb(255,0,0)" height="11px" width="11px" x="10px" y="50px" /><rect fill="rgb(0,0,0)" height="11px" width="11px" x="20px" y="50px" /><rect fill="rgb(0,0,0)" height="11px" width="11px" x="40px" y="50px" /><rect fill="rgb(255,0,0)" height="11px" width="11px" x="50px" y="50px" /><rect fill="rgb(0,0,0)" height="11px" width="11px" x="60px" y="50px" /><rect fill="rgb(255,0,0)" height="11px" width="11px" x="70px" y="50px" /><rect fill="rgb(0,0,0)" height="11px" width="11px" x="80px" y="50px" /><rect fill="rgb(28,0,0)" height="11px" width="11px" x="90px" y="50px" /><rect fill="rgb(28,0,0)" height="11px" width="11px" x="100px" y="50px" /><rect fill="rgb(0,0,0)" height="11px" width="11px" x="110px" y="50px" /><rect fill="rgb(0,0,0)" height="11px" width="11px" x="120px" y="50px" /><rect fill="rgb(0,0,0)" height="11px" width="11px" x="130px" y="50px" /><rect fill="rgb(255,0,0)" height="11px" width="11px" x="140px" y="50px" /><rect fill="rgb(0,0,0)" height="11px" width="11px" x="150px" y="50px" /><rect fill="rgb(0,0,0)" height="11px" width="11px" x="160px" y="50px" /><rect fill="rgb(255,0,0)" height="11px" width="11px" x="170px" y="50px" /><rect fill="rgb(255,0,0)" height="11px" width="11px" x="180px" y="50px" /><rect fill="rgb(255,0,0)" height="11px" width="11px" x="190px" y="50px" /><rect fill="rgb(0,0,0)" height="11px" width="11px" x="200px" y="50px" /><rect fill="rgb(0,0,0)" height="11px" width="11px" x="0px" y="60px" /><rect fill="rgb(0,0,0)" height="11px" width="11px" x="10px" y="60px" /><rect fill="rgb(0,0,0)" height="11px" width="11px" x="20px" y="60px" /><rect fill="rgb(0,0,0)" height="11px" width="11px" x="40px" y="60px" /><rect fill="rgb(0,0,0)" height="11px" width="11px" x="50px" y="60px" /><rect fill="rgb(0,0,0)" height="11px" width="11px" x="60px" y="60px" /><rect fill="rgb(0,0,0)" height="11px" width="11px" x="70px" y="60px" /><rect fill="rgb(0,0,0)" height="11px" width="11px" x="80px" y="60px" /><rect fill="rgb(254,246,0)" height="11px" width="11px" x="90px" y="60px" /><rect fill="rgb(254,246,0)" height="11px" width="11px" x="100px" y="60px" /><rect fill="rgb(255,247,0)" height="11px" width="11px" x="110px" y="60px" /><rect fill="rgb(0,0,0)" height="11px" width="11px" x="120px" y="60px" /><rect fill="rgb(0,0,0)" height="11px" width="11px" x="130px" y="60px" /><rect fill="rgb(0,0,0)" height="11px" width="11px" x="140px" y="60px" /><rect fill="rgb(0,0,0)" height="11px" width="11px" x="150px" y="60px" /><rect fill="rgb(0,0,0)" height="11px" width="11px" x="160px" y="60px" /><rect fill="rgb(0,0,0)" height="11px" width="11px" x="170px" y="60px" /><rect fill="rgb(0,0,0)" height="11px" width="11px" x="180px" y="60px" /><rect fill="rgb(0,0,0)" height="11px" width="11px" x="190px" y="60px" /><rect fill="rgb(0,0,0)" height="11px" width="11px" x="200px" y="60px" /><rect fill="rgb(0,0,0)" height="11px" width="11px" x="70px" y="70px" /><rect fill="rgb(255,247,0)" height="11px" width="11px" x="80px" y="70px" /><rect fill="rgb(0,0,0)" height="11px" width="11px" x="90px" y="70px" /><rect fill="rgb(0,0,0)" height="11px" width="11px" x="100px" y="70px" /><rect fill="rgb(0,0,0)" height="11px" width="11px" x="110px" y="70px" /><rect fill="rgb(255,247,0)" height="11px" width="11px" x="120px" y="70px" /><rect fill="rgb(0,0,0)" height="11px" width="11px" x="130px" y="70px" /><rect fill="rgb(0,0,0)" height="11px" width="11px" x="80px" y="80px" /><rect fill="rgb(0,0,0)" height="11px" width="11px" x="110px" y="80px" /><rect fill="rgb(255,247,0)" height="11px" width="11px" x="120px" y="80px" /><rect fill="rgb(0,0,0)" height="11px" width="11px" x="130px" y="80px" /><rect fill="rgb(0,0,0)" height="11px" width="11px" x="90px" y="90px" /><rect fill="rgb(0,0,0)" height="11px" width="11px" x="100px" y="90px" /><rect fill="rgb(255,247,0)" height="11px" width="11px" x="110px" y="90px" /><rect fill="rgb(0,0,0)" height="11px" width="11px" x="120px" y="90px" /><rect fill="rgb(0,0,0)" height="11px" width="11px" x="90px" y="100px" /><rect fill="rgb(255,247,0)" height="11px" width="11px" x="100px" y="100px" /><rect fill="rgb(0,0,0)" height="11px" width="11px" x="110px" y="100px" /><rect fill="rgb(0,0,0)" height="11px" width="11px" x="80px" y="110px" /><rect fill="rgb(255,247,0)" height="11px" width="11px" x="90px" y="110px" /><rect fill="rgb(0,0,0)" height="11px" width="11px" x="100px" y="110px" /><rect fill="rgb(0,0,0)" height="11px" width="11px" x="110px" y="110px" /><rect fill="rgb(0,0,0)" height="11px" width="11px" x="70px" y="120px" /><rect fill="rgb(255,247,0)" height="11px" width="11px" x="80px" y="120px" /><rect fill="rgb(0,0,0)" height="11px" width="11px" x="90px" y="120px" /><rect fill="rgb(0,0,0)" height="11px" width="11px" x="100px" y="120px" /><rect fill="rgb(0,0,0)" height="11px" width="11px" x="110px" y="120px" /><rect fill="rgb(0,0,0)" height="11px" width="11px" x="120px" y="120px" /><rect fill="rgb(0,0,0)" height="11px" width="11px" x="30px" y="130px" /><rect fill="rgb(0,0,0)" height="11px" width="11px" x="40px" y="130px" /><rect fill="rgb(0,0,0)" height="11px" width="11px" x="50px" y="130px" /><rect fill="rgb(0,0,0)" height="11px" width="11px" x="60px" y="130px" /><rect fill="rgb(0,0,0)" height="11px" width="11px" x="70px" y="130px" /><rect fill="rgb(254,246,0)" height="11px" width="11px" x="80px" y="130px" /><rect fill="rgb(254,246,0)" height="11px" width="11px" x="90px" y="130px" /><rect fill="rgb(255,247,0)" height="11px" width="11px" x="100px" y="130px" /><rect fill="rgb(255,247,0)" height="11px" width="11px" x="110px" y="130px" /><rect fill="rgb(255,247,0)" height="11px" width="11px" x="120px" y="130px" /><rect fill="rgb(0,0,0)" height="11px" width="11px" x="130px" y="130px" /><rect fill="rgb(0,0,0)" height="11px" width="11px" x="140px" y="130px" /><rect fill="rgb(0,0,0)" height="11px" width="11px" x="150px" y="130px" /><rect fill="rgb(0,0,0)" height="11px" width="11px" x="160px" y="130px" /><rect fill="rgb(0,0,0)" height="11px" width="11px" x="170px" y="130px" /><rect fill="rgb(0,0,0)" height="11px" width="11px" x="180px" y="130px" /><rect fill="rgb(0,0,0)" height="11px" width="11px" x="20px" y="140px" /><rect fill="rgb(0,0,0)" height="11px" width="11px" x="30px" y="140px" /><rect fill="rgb(0,255,245)" height="11px" width="11px" x="40px" y="140px" /><rect fill="rgb(0,255,245)" height="11px" width="11px" x="50px" y="140px" /><rect fill="rgb(0,255,245)" height="11px" width="11px" x="60px" y="140px" /><rect fill="rgb(0,0,0)" height="11px" width="11px" x="70px" y="140px" /><rect fill="rgb(0,28,27)" height="11px" width="11px" x="80px" y="140px" /><rect fill="rgb(0,0,0)" height="11px" width="11px" x="90px" y="140px" /><rect fill="rgb(0,0,0)" height="11px" width="11px" x="100px" y="140px" /><rect fill="rgb(0,0,0)" height="11px" width="11px" x="110px" y="140px" /><rect fill="rgb(0,28,27)" height="11px" width="11px" x="120px" y="140px" /><rect fill="rgb(0,0,0)" height="11px" width="11px" x="130px" y="140px" /><rect fill="rgb(0,0,0)" height="11px" width="11px" x="140px" y="140px" /><rect fill="rgb(0,255,245)" height="11px" width="11px" x="150px" y="140px" /><rect fill="rgb(0,255,245)" height="11px" width="11px" x="160px" y="140px" /><rect fill="rgb(0,255,245)" height="11px" width="11px" x="170px" y="140px" /><rect fill="rgb(0,0,0)" height="11px" width="11px" x="180px" y="140px" /><rect fill="rgb(0,0,0)" height="11px" width="11px" x="20px" y="150px" /><rect fill="rgb(0,255,245)" height="11px" width="11px" x="30px" y="150px" /><rect fill="rgb(0,0,0)" height="11px" width="11px" x="40px" y="150px" /><rect fill="rgb(0,0,0)" height="11px" width="11px" x="50px" y="150px" /><rect fill="rgb(0,0,0)" height="11px" width="11px" x="60px" y="150px" /><rect fill="rgb(0,0,0)" height="11px" width="11px" x="70px" y="150px" /><rect fill="rgb(0,255,245)" height="11px" width="11px" x="80px" y="150px" /><rect fill="rgb(0,255,245)" height="11px" width="11px" x="90px" y="150px" /><rect fill="rgb(0,0,0)" height="11px" width="11px" x="100px" y="150px" /><rect fill="rgb(0,255,245)" height="11px" width="11px" x="110px" y="150px" /><rect fill="rgb(0,255,245)" height="11px" width="11px" x="120px" y="150px" /><rect fill="rgb(0,0,0)" height="11px" width="11px" x="130px" y="150px" /><rect fill="rgb(0,255,245)" height="11px" width="11px" x="140px" y="150px" /><rect fill="rgb(0,0,0)" height="11px" width="11px" x="150px" y="150px" /><rect fill="rgb(0,0,0)" height="11px" width="11px" x="160px" y="150px" /><rect fill="rgb(0,0,0)" height="11px" width="11px" x="170px" y="150px" /><rect fill="rgb(0,0,0)" height="11px" width="11px" x="180px" y="150px" /><rect fill="rgb(0,0,0)" height="11px" width="11px" x="20px" y="160px" /><rect fill="rgb(0,0,0)" height="11px" width="11px" x="30px" y="160px" /><rect fill="rgb(0,255,245)" height="11px" width="11px" x="40px" y="160px" /><rect fill="rgb(0,255,245)" height="11px" width="11px" x="50px" y="160px" /><rect fill="rgb(0,0,0)" height="11px" width="11px" x="60px" y="160px" /><rect fill="rgb(0,0,0)" height="11px" width="11px" x="70px" y="160px" /><rect fill="rgb(0,255,245)" height="11px" width="11px" x="80px" y="160px" /><rect fill="rgb(0,0,0)" height="11px" width="11px" x="90px" y="160px" /><rect fill="rgb(0,255,245)" height="11px" width="11px" x="100px" y="160px" /><rect fill="rgb(0,0,0)" height="11px" width="11px" x="110px" y="160px" /><rect fill="rgb(0,255,245)" height="11px" width="11px" x="120px" y="160px" /><rect fill="rgb(0,0,0)" height="11px" width="11px" x="130px" y="160px" /><rect fill="rgb(0,0,0)" height="11px" width="11px" x="140px" y="160px" /><rect fill="rgb(0,255,245)" height="11px" width="11px" x="150px" y="160px" /><rect fill="rgb(0,255,245)" height="11px" width="11px" x="160px" y="160px" /><rect fill="rgb(0,0,0)" height="11px" width="11px" x="170px" y="160px" /><rect fill="rgb(0,0,0)" height="11px" width="11px" x="180px" y="160px" /><rect fill="rgb(0,0,0)" height="11px" width="11px" x="20px" y="170px" /><rect fill="rgb(0,0,0)" height="11px" width="11px" x="30px" y="170px" /><rect fill="rgb(0,0,0)" height="11px" width="11px" x="40px" y="170px" /><rect fill="rgb(0,0,0)" height="11px" width="11px" x="50px" y="170px" /><rect fill="rgb(0,255,245)" height="11px" width="11px" x="60px" y="170px" /><rect fill="rgb(0,0,0)" height="11px" width="11px" x="70px" y="170px" /><rect fill="rgb(0,255,245)" height="11px" width="11px" x="80px" y="170px" /><rect fill="rgb(0,0,0)" height="11px" width="11px" x="90px" y="170px" /><rect fill="rgb(0,0,0)" height="11px" width="11px" x="100px" y="170px" /><rect fill="rgb(0,0,0)" height="11px" width="11px" x="110px" y="170px" /><rect fill="rgb(0,255,245)" height="11px" width="11px" x="120px" y="170px" /><rect fill="rgb(0,0,0)" height="11px" width="11px" x="130px" y="170px" /><rect fill="rgb(0,0,0)" height="11px" width="11px" x="140px" y="170px" /><rect fill="rgb(0,0,0)" height="11px" width="11px" x="150px" y="170px" /><rect fill="rgb(0,0,0)" height="11px" width="11px" x="160px" y="170px" /><rect fill="rgb(0,255,245)" height="11px" width="11px" x="170px" y="170px" /><rect fill="rgb(0,0,0)" height="11px" width="11px" x="180px" y="170px" /><rect fill="rgb(0,0,0)" height="11px" width="11px" x="20px" y="180px" /><rect fill="rgb(0,255,245)" height="11px" width="11px" x="30px" y="180px" /><rect fill="rgb(0,255,245)" height="11px" width="11px" x="40px" y="180px" /><rect fill="rgb(0,255,245)" height="11px" width="11px" x="50px" y="180px" /><rect fill="rgb(0,0,0)" height="11px" width="11px" x="60px" y="180px" /><rect fill="rgb(0,0,0)" height="11px" width="11px" x="70px" y="180px" /><rect fill="rgb(0,255,245)" height="11px" width="11px" x="80px" y="180px" /><rect fill="rgb(0,0,0)" height="11px" width="11px" x="90px" y="180px" /><rect fill="rgb(0,0,0)" height="11px" width="11px" x="110px" y="180px" /><rect fill="rgb(0,255,245)" height="11px" width="11px" x="120px" y="180px" /><rect fill="rgb(0,0,0)" height="11px" width="11px" x="130px" y="180px" /><rect fill="rgb(0,255,245)" height="11px" width="11px" x="140px" y="180px" /><rect fill="rgb(0,255,245)" height="11px" width="11px" x="150px" y="180px" /><rect fill="rgb(0,255,245)" height="11px" width="11px" x="160px" y="180px" /><rect fill="rgb(0,0,0)" height="11px" width="11px" x="170px" y="180px" /><rect fill="rgb(0,0,0)" height="11px" width="11px" x="180px" y="180px" /><rect fill="rgb(0,0,0)" height="11px" width="11px" x="20px" y="190px" /><rect fill="rgb(0,0,0)" height="11px" width="11px" x="30px" y="190px" /><rect fill="rgb(0,0,0)" height="11px" width="11px" x="40px" y="190px" /><rect fill="rgb(0,0,0)" height="11px" width="11px" x="50px" y="190px" /><rect fill="rgb(0,0,0)" height="11px" width="11px" x="60px" y="190px" /><rect fill="rgb(0,0,0)" height="11px" width="11px" x="70px" y="190px" /><rect fill="rgb(0,0,0)" height="11px" width="11px" x="80px" y="190px" /><rect fill="rgb(0,0,0)" height="11px" width="11px" x="90px" y="190px" /><rect fill="rgb(0,0,0)" height="11px" width="11px" x="110px" y="190px" /><rect fill="rgb(0,0,0)" height="11px" width="11px" x="120px" y="190px" /><rect fill="rgb(0,0,0)" height="11px" width="11px" x="130px" y="190px" /><rect fill="rgb(0,0,0)" height="11px" width="11px" x="140px" y="190px" /><rect fill="rgb(0,0,0)" height="11px" width="11px" x="150px" y="190px" /><rect fill="rgb(0,0,0)" height="11px" width="11px" x="160px" y="190px" /><rect fill="rgb(0,0,0)" height="11px" width="11px" x="170px" y="190px" /></svg>