<svg id="Capa_1" enable-background="new 0 0 512 512" height="512" viewBox="0 0 512 512" width="512" xmlns="http://www.w3.org/2000/svg"><path d="m344.227 426.285c-7.321 0-13.655-5.466-14.561-12.916l-13.966-114.926-31.071 7.332c-7.891 1.862-15.803-3.026-17.667-10.92-1.863-7.894 3.026-15.804 10.92-17.667l47.043-11.102c4.065-.959 8.348-.142 11.775 2.248s5.673 6.127 6.177 10.274l15.946 131.217c.978 8.052-4.756 15.372-12.807 16.351-.601.073-1.198.109-1.789.109z" fill="#d9495d"/><path d="m249.195 233.927c0 57.617-51.551 97.748-115.143 97.748s-126.552-40.131-126.552-97.748 62.96-104.325 126.552-104.325c63.591-.001 115.143 46.707 115.143 104.325z" fill="#e26e7e"/><path d="m93.019 135.946c-47.115 14.637-85.519 52.981-85.519 97.981 0 57.617 62.96 97.748 126.552 97.748.79 0 1.576-.011 2.362-.023-101.555-53.677-86.395-152.477-43.395-195.706z" fill="#d9495d"/><path d="m355.66 258.604c0 51.681-46.24 87.677-103.28 87.677s-103.28-35.996-103.28-87.677 46.24-93.577 103.28-93.577 103.28 41.896 103.28 93.577z" fill="#eda1ab"/><path d="m504.5 228.567c0 56.926-50.933 96.575-113.762 96.575s-113.762-39.649-113.762-96.575 50.933-103.074 113.762-103.074 113.762 46.148 113.762 103.074z" fill="#eda1ab"/><path d="m344.742 134.273c-39.914 16.007-67.765 52.201-67.765 94.294 0 56.926 50.933 96.575 113.762 96.575 26.315 0 50.54-6.959 69.814-19.226-151.917-3.999-157.882-112.547-115.811-171.643z" fill="#e26e7e"/><path d="m208.321 447.822c-.591 0-1.188-.036-1.79-.109-8.052-.978-13.785-8.299-12.807-16.351l15.947-131.217c.504-4.147 2.751-7.884 6.178-10.274s7.709-3.207 11.775-2.248l47.043 11.102c7.894 1.863 12.783 9.772 10.92 17.667-1.863 7.894-9.773 12.785-17.667 10.92l-31.071-7.332-13.966 114.925c-.907 7.451-7.242 12.916-14.562 12.917z" fill="#d9495d"/><path d="m101.134 422.106c-1.013 0-2.04-.105-3.071-.324-7.933-1.689-12.996-9.488-11.308-17.422l27.925-131.217c.91-4.274 3.675-7.921 7.546-9.95s8.444-2.228 12.476-.546l50.899 21.245c7.485 3.124 11.021 11.725 7.896 19.21-3.124 7.485-11.726 11.022-19.21 7.896l-34.563-14.427-24.24 113.903c-1.468 6.903-7.565 11.632-14.35 11.632z" fill="#d9495d"/><ellipse cx="336.361" cy="245.194" fill="#fff" rx="23.61" ry="18.802"/><ellipse cx="464.335" cy="245.194" fill="#fff" rx="23.61" ry="18.802"/><path d="m350.121 210.6c-4.142 0-7.5 3.358-7.5 7.5v8.337c0 4.142 3.358 7.5 7.5 7.5s7.5-3.358 7.5-7.5v-8.337c0-4.142-3.358-7.5-7.5-7.5zm84.645-85.061c2.834-21.86 12.397-44.279 25.23-55.775 3.085-2.764 3.346-7.506.582-10.591s-7.505-3.345-10.591-.582c-15.241 13.653-26.279 38.068-29.869 62.691-9.411-2.144-19.251-3.289-29.38-3.289-11.009 0-21.676 1.353-31.822 3.871 4.052-18.542 12.612-36.255 23.54-46.045 3.085-2.764 3.346-7.505.582-10.591s-7.505-3.346-10.591-.582c-15.188 13.606-26.201 37.9-29.83 62.436-20.281 8.027-37.703 20.962-50.451 37.158-12.671-4.456-26.027-6.712-39.786-6.712-8.948 0-17.649.98-25.989 2.816-23.333-24.354-56.715-38.242-92.34-38.242-26.507 0-53.897 7.795-77.125 21.949-3.537 2.156-4.657 6.771-2.502 10.308 2.156 3.537 6.771 4.657 10.308 2.502 20.909-12.742 45.527-19.759 69.319-19.759 28.742 0 55.773 10.141 75.867 28.151-39.691 15.086-67.77 50.652-68.301 92.154l-4.028-1.681c-6.111-2.55-12.98-2.249-18.846.825-5.865 3.075-10.02 8.554-11.399 15.032l-10.187 47.87c-21.848-5.623-41.579-15.988-56.144-29.63-17.018-15.942-26.013-35.27-26.013-55.896 0-19.773 8.174-39.095 23.64-55.876 2.807-3.046 2.613-7.791-.433-10.598-3.045-2.807-7.791-2.614-10.598.433-18.062 19.598-27.609 42.435-27.609 66.041 0 24.88 10.636 47.994 30.759 66.842 16.514 15.468 38.77 27.151 63.274 33.363l-14.613 68.668c-1.233 5.796-.136 11.726 3.09 16.697s8.195 8.388 13.993 9.622c1.523.324 3.08.488 4.622.488h.011c10.399-.001 19.519-7.39 21.685-17.571l15.52-72.926c14.609-.393 28.669-2.797 41.908-7.167 5.197 3.719 10.823 7.02 16.805 9.857l-10.775 88.659c-1.475 12.144 7.205 23.225 19.353 24.701.895.108 1.8.163 2.691.163 11.193-.001 20.653-8.389 22.006-19.511l10.034-82.567c3.981.342 7.998.536 12.019.536 22.181 0 43.104-5.183 60.703-14.697l9.137 75.19c1.353 11.123 10.813 19.51 22.006 19.51.893 0 1.798-.055 2.694-.163 9.113-1.107 16.7-7.842 18.88-16.757.983-4.024-1.481-8.083-5.504-9.067-4.025-.983-8.083 1.481-9.067 5.504-.706 2.889-3.165 5.07-6.114 5.429-3.973.478-7.532-2.371-8.005-6.266l-10.015-82.411c3.185-2.432 6.205-5.038 9.044-7.806 1.549.638 3.119 1.249 4.708 1.833l6.99 57.516c.462 3.805 3.698 6.596 7.436 6.596.302 0 .607-.018.914-.056 4.112-.5 7.04-4.238 6.541-8.35l-6.2-51.016c10.772 2.528 22.235 3.873 34.209 3.873 69.13 0 121.261-44.743 121.261-104.076 0-46.815-32.074-86.925-77.234-103.028zm-293.204 198.432 3.617-16.995 15.48 6.461c1.876 2.361 3.879 4.638 6.002 6.829-8.08 2.013-16.469 3.251-25.099 3.705zm173.263-3.531c-.026.019-.053.036-.079.055-16.924 11.76-38.775 18.285-62.365 18.285-3.416 0-6.827-.156-10.209-.432l1.111-9.144 22.914 5.407c4.034.954 8.071-1.545 9.022-5.577.952-4.032-1.546-8.071-5.577-9.022l-31.071-7.332c-2.076-.491-4.264-.073-6.013 1.148-1.75 1.221-2.898 3.128-3.155 5.247l-13.966 114.925c-.474 3.893-4.023 6.749-8.001 6.267-3.934-.478-6.745-4.067-6.267-8.001l15.947-131.216c.247-2.027 1.348-3.86 3.022-5.028s3.775-1.57 5.762-1.1l47.043 11.102c4.031.951 8.071-1.545 9.022-5.577.952-4.031-1.545-8.071-5.577-9.022l-47.042-11.102c-6.136-1.449-12.617-.21-17.788 3.396-5.17 3.606-8.571 9.263-9.332 15.521l-3.249 26.731c-6.512-3.509-12.444-7.67-17.66-12.386 1.382-3.75-.418-7.955-4.141-9.509l-34.563-14.427c-2.06-.86-4.395-.758-6.372.279-1.977 1.036-3.389 2.898-3.854 5.081l-7.456 35.036c-.004.018-.008.036-.011.053l-16.773 78.814c-.702 3.298-3.652 5.693-7.018 5.693h-.003c-.499 0-1.004-.054-1.503-.16-3.876-.825-6.358-4.649-5.533-8.525l27.924-131.217c.447-2.099 1.792-3.873 3.692-4.869 1.9-.995 4.126-1.093 6.105-.267l50.899 21.245c3.821 1.594 8.214-.21 9.811-4.032 1.595-3.823-.21-8.215-4.032-9.811l-31.71-13.236c-.116-1.713-.179-3.428-.179-5.131 0-47.463 42.967-86.077 95.78-86.077 10.691 0 21.091 1.557 31.031 4.624-8.891 15.37-13.935 32.865-13.935 51.416 0 36.957 20.228 68.251 52.19 86.6-2.175 1.863-4.461 3.618-6.841 5.275zm151.575-28.017c-19.662 16.263-46.533 25.22-75.662 25.22-14.359 0-28.164-2.186-40.833-6.341-.055-.017-.109-.035-.165-.051-12.966-4.274-24.736-10.616-34.664-18.827-19.733-16.322-30.6-39-30.6-63.855 0-36.664 23.077-68.567 56.849-84.591-.011 5.792.439 11.461 1.414 16.858.655 3.626 3.813 6.168 7.372 6.168.442 0 .891-.039 1.342-.121 4.076-.736 6.784-4.637 6.047-8.713-1.131-6.264-1.392-13.099-.917-20.111 10.724-3.283 22.212-5.065 34.154-5.065 9.74 0 19.176 1.191 28.143 3.409-.101 6.32.339 12.51 1.399 18.377.655 3.626 3.813 6.169 7.372 6.169.442 0 .891-.04 1.342-.121 4.076-.736 6.784-4.637 6.047-8.713-.626-3.467-.987-7.109-1.105-10.858 37.126 14.915 63.065 48.438 63.065 87.31 0 24.856-10.867 47.534-30.6 63.856zm-47.882-71.27c-3.123-2.722-7.861-2.397-10.582.726-1.917 2.199-4.683 3.46-7.588 3.46-2.906 0-5.672-1.261-7.588-3.46-2.721-3.124-7.458-3.448-10.582-.727-3.123 2.721-3.448 7.459-.727 10.582 4.766 5.469 11.653 8.605 18.896 8.605s14.13-3.136 18.896-8.605c2.723-3.122 2.398-7.86-.725-10.581zm32.057-10.553c-4.142 0-7.5 3.358-7.5 7.5v8.337c0 4.142 3.358 7.5 7.5 7.5s7.5-3.358 7.5-7.5v-8.337c0-4.142-3.358-7.5-7.5-7.5z"/></svg>