<svg width="401.998" height="401.998" xmlns="http://www.w3.org/2000/svg">

 <g>
  <title>background</title>
  <rect fill="none" id="canvas_background" height="402" width="582" y="-1" x="-1"/>
 </g>
 <g>
  <title>Layer 1</title>
  <g id="svg_1">
   <path fill="#999999" id="svg_2" d="m377.87,24.126c-16.084,-16.084 -35.453,-24.126 -58.101,-24.126l-237.542,0c-22.648,0 -42.016,8.042 -58.102,24.126c-16.081,16.086 -24.123,35.45 -24.123,58.102l0,237.543c0,22.647 8.042,42.014 24.123,58.101c16.086,16.085 35.454,24.127 58.102,24.127l237.542,0c22.648,0 42.011,-8.042 58.102,-24.127c16.085,-16.087 24.126,-35.453 24.126,-58.101l0,-237.543c-0.004,-22.648 -8.046,-42.016 -24.127,-58.102zm-12.422,295.645c0,12.559 -4.47,23.314 -13.415,32.264c-8.945,8.945 -19.698,13.411 -32.265,13.411l-237.541,0c-12.563,0 -23.317,-4.466 -32.264,-13.411c-8.945,-8.949 -13.418,-19.705 -13.418,-32.264l0,-237.543c0,-12.562 4.473,-23.316 13.418,-32.264c8.947,-8.946 19.701,-13.418 32.264,-13.418l237.542,0c12.566,0 23.319,4.473 32.265,13.418c8.945,8.947 13.415,19.701 13.415,32.264l0,237.543l-0.001,0z"/>
  </g>
  <g id="svg_3"/>
  <g id="svg_4"/>
  <g id="svg_5"/>
  <g id="svg_6"/>
  <g id="svg_7"/>
  <g id="svg_8"/>
  <g id="svg_9"/>
  <g id="svg_10"/>
  <g id="svg_11"/>
  <g id="svg_12"/>
  <g id="svg_13"/>
  <g id="svg_14"/>
  <g id="svg_15"/>
  <g id="svg_16"/>
  <g id="svg_17"/>
 </g>
</svg>