<svg height="512pt" viewBox="-28 0 511 512" width="512pt" xmlns="http://www.w3.org/2000/svg"><path d="m238.097656 462c0 5.523438-4.476562 10-10 10-5.523437 0-10-4.476562-10-10s4.476563-10 10-10c5.523438 0 10 4.476562 10 10zm0 0"/><path d="m158.097656 176v17.71875c-11.175781 3.945312-19.707031 14.519531-19.929687 27.441406-30.285157 8.910156-78.136719 28.878906-107.410157 70.695313-43.113281 61.566406-27.71875 145-27.039062 148.523437 1.023438 5.332032 6.105469 8.84375 11.40625 7.984375 3.539062-.566406 87.203125-14.640625 130.3125-76.21875 2.53125-3.613281 4.894531-7.402343 7.121094-11.316406 6.636718 35.089844 15.109375 66.789063 24.542968 91.460937 15.359376 40.179688 32.042969 59.710938 50.996094 59.710938 19.167969 0 35.933594-19.640625 51.253906-60.039062 9.300782-24.527344 17.679688-56.121094 24.269532-91.160157 2.230468 3.925781 4.597656 7.722657 7.136718 11.34375 43.109376 61.578125 126.773438 75.648438 130.3125 76.21875.535157.085938 1.070313.128907 1.597657.128907 4.714843 0 8.894531-3.34375 9.808593-8.113282.679688-3.523437 16.074219-86.957031-27.035156-148.523437-29.289062-41.828125-77.136718-61.792969-107.421875-70.695313-.21875-12.917968-8.738281-23.496094-19.921875-27.441406v-17.71875c0-28.132812-16.515625-52.101562-39.9375-63.25 1.734375-49.777344 43.011719-92.75 89.9375-92.75 5.523438 0 10-4.476562 10-10s-4.476562-10-10-10c-58.40625 0-104.910156 50.378906-109.605468 106.761719-3.410157-.503907-6.882813-.761719-10.394532-.761719-3.53125 0-7 .269531-10.394531.777344-4.683594-56.371094-51.179687-106.777344-109.605469-106.777344-5.523437 0-10 4.476562-10 10s4.476563 10 10 10c46.941406 0 88.230469 43 89.9375 92.796875-23.59375 11.265625-39.9375 35.359375-39.9375 63.203125zm129.964844 36c5.433594.019531 10.050781 4.367188 9.964844 9.839844-.097656 7.53125-.382813 17.398437-1.128906 30.160156h-137.628907c-.648437-11.199219-.957031-18.730469-1.113281-30.175781-.074219-5.257813 4.324219-9.804688 10.023438-9.824219zm-159.003906 148.675781c-30.003906 42.855469-84.667969 60.230469-107.101563 65.769531-2.492187-22.953124-4.902343-80.152343 25.183594-123.121093 24.691406-35.273438 66.332031-53.273438 91.59375-61.398438.046875 1.082031.09375 2.160157.144531 3.238281l-73.039062 100.433594c-3.246094 4.46875-2.261719 10.722656 2.207031 13.972656 4.476563 3.25 10.726563 2.25 13.96875-2.207031l58.960937-81.074219c1.390626 16.0625 3.265626 32.320313 5.601563 48.53125-4.320313 13.328126-10.195313 25.390626-17.519531 35.855469zm131.59375 84.191407c-13.179688 34.75-25.457032 47.132812-32.554688 47.132812-6.644531 0-19.09375-12.269531-32.316406-46.851562-19.171875-50.152344-30.652344-119.878907-35.097656-173.148438h57.414062v150c0 5.523438 4.476563 10 10 10 5.523438 0 10-4.476562 10-10v-150.011719h57.367188c-4.488282 53.394531-15.902344 123.015625-34.8125 172.878907zm148.40625-141.542969c30 42.847656 27.628906 100.160156 25.164062 123.136719-22.421875-5.511719-76.996094-22.8125-107.082031-65.785157-7.34375-10.484375-13.230469-22.585937-17.558594-35.964843 2.324219-16.183594 4.195313-32.421876 5.59375-48.480469l59.003907 81.132812c3.253906 4.472657 9.511718 5.449219 13.96875 2.203125 4.46875-3.246094 5.457031-9.5 2.207031-13.96875l-73.066407-100.464844c.054688-1.070312.101563-2.140624.148438-3.210937 25.261719 8.117187 66.910156 26.113281 91.621094 61.402344zm-180.960938-177.324219c27.59375 0 50 22.324219 50 50v16h-100v-16c0-27.570312 22.429688-50 50-50zm0 0"/></svg>