<?xml version="1.0" encoding="iso-8859-1"?>
<!-- Generator: Adobe Illustrator 19.0.0, SVG Export Plug-In . SVG Version: 6.00 Build 0)  -->
<svg version="1.1" id="Capa_1" xmlns="http://www.w3.org/2000/svg" xmlns:xlink="http://www.w3.org/1999/xlink" x="0px" y="0px"
	 viewBox="0 0 463 463" style="enable-background:new 0 0 463 463;" xml:space="preserve">
<path d="M341.5,219l-22.902-30.537l-6.585-39.511c-1.251-7.505-7.681-12.952-15.29-12.952H281.06
	c-1.239-7.19-1.976-12.924-1.976-16.5c0-0.409-0.042-0.812-0.107-1.21c0.128-2.067-0.588-4.176-2.164-5.758
	c-1.808-1.814-3.829-3.492-6.014-5.04c0.133-1.325,0.201-2.658,0.201-3.992c0-3.908-0.579-7.681-1.641-11.249
	c3.364-3.397,10.157-11.414,10.692-21.085l13.19-26.378c0.44-0.882,0.965-1.729,1.558-2.52L317.5,12
	c2.485-3.314,1.813-8.015-1.5-10.5c-3.315-2.485-8.015-1.813-10.5,1.5l-22.7,30.267c-1.132,1.509-2.134,3.129-2.976,4.814
	l-7.55,15.1c-4.773-4.146-11.088-6.185-17.122-5.238c1.384-4.007,5.749-7.988,10.281-9.197c4.002-1.067,6.382-5.177,5.314-9.179
	s-5.178-6.384-9.18-5.314c-8.835,2.356-16.661,9.337-20.049,17.423C238.82,40.69,235.55,40,231.5,40s-7.32,0.69-10.019,1.677
	c-3.388-8.086-11.214-15.067-20.049-17.423c-4.005-1.071-8.113,1.312-9.18,5.314c-1.067,4.002,1.313,8.112,5.314,9.179
	c4.532,1.209,8.897,5.19,10.281,9.197c-6.034-0.948-12.348,1.092-17.122,5.238l-7.549-15.099c-0.843-1.687-1.845-3.307-2.976-4.814
	L157.5,3c-2.484-3.313-7.186-3.984-10.5-1.5c-3.313,2.485-3.985,7.186-1.5,10.5l22.702,30.27c0.592,0.79,1.116,1.637,1.558,2.52
	l13.189,26.377c0.536,9.671,7.329,17.688,10.692,21.085C192.579,95.819,192,99.592,192,103.5c0,1.333,0.077,2.663,0.21,3.985
	c-2.189,1.549-4.214,3.23-6.024,5.047c-1.671,1.678-2.38,3.948-2.135,6.131C184.02,118.94,184,119.219,184,119.5
	c0,3.576-0.737,9.31-1.976,16.5h-15.746c-7.609,0-14.039,5.447-15.29,12.952l-6.585,39.511L121.5,219
	c-2.485,3.314-1.813,8.015,1.5,10.5c1.35,1.012,2.929,1.5,4.494,1.5c2.28,0,4.532-1.036,6.006-3l24-32
	c0.721-0.961,1.2-2.082,1.398-3.267l6.886-41.316c0.04-0.242,0.247-0.417,0.493-0.417h12.895
	c-3.025,14.877-7.096,32.763-11.1,50.351c-3.344,14.691-6.745,29.635-9.632,43.226c-0.001,0.006-0.002,0.012-0.004,0.018
	c-2.757,12.983-5.045,24.731-6.359,33.833c-7.569,52.401-5.982,140.341,21.244,171.784C180.67,458.697,189.478,463,199.5,463
	c6.913,0,13.041-2.635,18.214-7.831c6.233-6.261,10.672-16.034,13.828-28.359c3.156,12.325,7.595,22.099,13.828,28.359
	c5.173,5.196,11.301,7.831,18.214,7.831c10.022,0,18.83-4.303,26.179-12.789c27.227-31.443,28.813-119.382,21.244-171.784
	c-2.691-18.634-9.455-48.345-15.995-77.077c-4.004-17.588-8.074-35.473-11.1-50.351h12.811c0.246,0,0.453,0.175,0.493,0.417
	l6.886,41.315c0.198,1.186,0.678,2.306,1.398,3.267l24,32c1.474,1.965,3.726,3,6.006,3c1.565,0,3.146-0.489,4.494-1.5
	C343.314,227.015,343.985,222.314,341.5,219z M276.772,359.625c-9.918,40.288-21.359,60.507-29.811,67.029
	c-3.604-12.352-5.597-28.703-6.688-45.906c22.113-22.159,34.358-81.958,37.795-186.257c0.764,3.369,1.539,6.77,2.317,10.189
	c3.295,14.474,6.645,29.195,9.486,42.544C290.877,279.668,285.873,322.657,276.772,359.625z M216.122,426.653
	c-8.452-6.522-19.893-26.74-29.811-67.029c-9.1-36.967-14.104-79.957-13.099-112.401c2.841-13.349,6.191-28.07,9.486-42.544
	c0.779-3.419,1.553-6.82,2.317-10.189c3.436,104.3,15.681,164.098,37.795,186.257C221.72,397.95,219.726,414.301,216.122,426.653z
	 M231.542,245.164c-3.092-15.606-7.142-33.347-12.138-53.167c3.89-0.764,7.936-1.158,12.096-1.158c4.188,0,8.26,0.4,12.176,1.175
	C238.681,211.827,234.634,229.563,231.542,245.164z M247.415,177.47c-5.129-1.076-10.456-1.631-15.915-1.631
	c-5.433,0-10.732,0.55-15.835,1.615c-1.395-5.319-2.758-10.407-4.058-15.186c6.041-2.13,12.86-3.269,19.894-3.269
	c7.071,0,13.914,1.149,19.97,3.295C250.171,167.071,248.809,172.155,247.415,177.47z M263.373,120.637
	c-0.215,0.708-0.459,1.517-0.733,2.43c-0.965,3.219-2.543,8.543-4.575,15.626c-0.778,2.71-1.651,5.78-2.591,9.126
	c-7.415-2.492-15.605-3.82-23.973-3.82c-8.332,0-16.498,1.321-23.896,3.797c-0.938-3.337-1.809-6.399-2.585-9.104
	c-2.032-7.083-3.61-12.407-4.575-15.626c-0.281-0.935-0.531-1.765-0.75-2.485c7.741-6.048,19.304-9.582,31.805-9.582
	C244.037,111,255.631,114.557,263.373,120.637z M204.771,269.465c-3.271-31.069-4.712-64.655-5.33-94.617
	C210.637,216.772,224,273.185,224,303.5c0,4.049,0.02,8.358,0.039,12.865c0.001,0.235,0.002,0.475,0.003,0.711
	c-0.031,7.499-0.037,14.928,0.015,22.227c-0.031,5.274-0.096,10.718-0.218,16.231C216.783,340.6,209.523,314.602,204.771,269.465z
	 M239.027,339.303c0.052-7.299,0.046-14.729,0.015-22.227c0.001-0.236,0.002-0.476,0.003-0.711c0.02-4.507,0.039-8.816,0.039-12.865
	c0-30.315,13.363-86.728,24.559-128.652c-0.618,29.961-2.058,63.548-5.33,94.617c-4.753,45.137-12.012,71.135-19.069,86.069
	C239.123,350.021,239.058,344.577,239.027,339.303z M198.827,66.627c1.579-2.896,4.861-4.321,6.955-3.827
	c7.983,1.876,12.943-1.809,16.225-4.25C224.777,56.49,226.779,55,231.5,55s6.723,1.49,9.493,3.551
	c3.28,2.441,8.239,6.128,16.225,4.25c2.087-0.489,5.376,0.931,6.955,3.827c1.714,3.141,0.826,7.21-2.392,11.544
	C254.529,69.517,243.648,64,231.5,64s-23.029,5.516-30.281,14.172C198.001,73.837,197.113,69.768,198.827,66.627z M231.5,79
	c12.299,0,22.506,9.11,24.238,20.935C248.291,97.392,240.026,96,231.5,96c-8.526,0-16.791,1.392-24.238,3.935
	C208.994,88.11,219.201,79,231.5,79z M199.5,448c-5.552,0-10.406-2.489-14.839-7.608c-17.326-20.008-22.733-72.864-21.173-119.07
	c2.173,14.25,4.954,28.461,8.259,41.888c7.324,29.755,19.805,66.412,38.418,77.481c-0.96,1.489-1.986,2.795-3.082,3.896
	C204.766,446.916,202.355,448,199.5,448z M278.423,440.392c-4.433,5.119-9.287,7.608-14.839,7.608c-2.855,0-5.266-1.084-7.584-3.414
	c-1.096-1.101-2.121-2.406-3.082-3.896c18.614-11.069,31.095-47.726,38.418-77.481c3.306-13.427,6.086-27.638,8.259-41.888
	C301.156,367.528,295.749,420.384,278.423,440.392z"/>
<g>
</g>
<g>
</g>
<g>
</g>
<g>
</g>
<g>
</g>
<g>
</g>
<g>
</g>
<g>
</g>
<g>
</g>
<g>
</g>
<g>
</g>
<g>
</g>
<g>
</g>
<g>
</g>
<g>
</g>
</svg>
