<svg width="511" height="512" xmlns="http://www.w3.org/2000/svg">

 <g>
  <title>background</title>
  <rect fill="none" id="canvas_background" height="402" width="582" y="-1" x="-1"/>
 </g>
 <g>
  <title>Layer 1</title>
  <path fill="#999999" id="svg_1" d="m62.09766,257c0,5.52344 -4.47657,10 -10,10c-5.52344,0 -10,-4.47656 -10,-10s4.47656,-10 10,-10c5.52343,0 10,4.47656 10,10zm0,0"/>
  <path fill="#999999" transform="rotate(90 255.09782409667972,256) " id="svg_2" d="m185.09766,176l0,17.71875c-11.17578,3.94531 -19.70703,14.51953 -19.92969,27.44141c-30.28516,8.91015 -78.13672,28.8789 -107.41016,70.69531c-43.11328,61.56641 -27.71875,145 -27.03906,148.52344c1.02344,5.33203 6.10547,8.84375 11.40625,7.98437c3.53906,-0.5664 87.20313,-14.64062 130.3125,-76.21875c2.53125,-3.61328 4.89453,-7.40234 7.12109,-11.3164c6.63672,35.08984 15.10938,66.78906 24.54297,91.46093c15.35938,40.17969 32.04297,59.71094 50.9961,59.71094c19.16797,0 35.93359,-19.64062 51.2539,-60.03906c9.30078,-24.52735 17.67969,-56.1211 24.26953,-91.16016c2.23047,3.92578 4.59766,7.72266 7.13672,11.34375c43.10938,61.57813 126.77344,75.64844 130.3125,76.21875c0.53516,0.08594 1.07032,0.12891 1.59766,0.12891c4.71484,0 8.89453,-3.34375 9.80859,-8.11328c0.67969,-3.52344 16.07422,-86.95703 -27.03515,-148.52344c-29.28907,-41.82813 -77.13672,-61.79297 -107.42188,-70.69531c-0.21875,-12.91797 -8.73828,-23.4961 -19.92187,-27.44141l0,-17.71875c0,-28.13281 -16.51563,-52.10156 -39.9375,-63.25c1.73437,-49.77734 43.01172,-92.75 89.9375,-92.75c5.52343,0 10,-4.47656 10,-10s-4.47657,-10 -10,-10c-58.40625,0 -104.91016,50.37891 -109.60547,106.76172c-3.41016,-0.50391 -6.88281,-0.76172 -10.39453,-0.76172c-3.53125,0 -7,0.26953 -10.39453,0.77734c-4.6836,-56.37109 -51.17969,-106.77734 -109.60547,-106.77734c-5.52344,0 -10,4.47656 -10,10s4.47656,10 10,10c46.9414,0 88.23047,43 89.9375,92.79688c-23.59375,11.26562 -39.9375,35.35937 -39.9375,63.20312zm129.96484,36c5.43359,0.01953 10.05078,4.36719 9.96484,9.83984c-0.09765,7.53125 -0.38281,17.39844 -1.1289,30.16016l-137.62891,0c-0.64844,-11.19922 -0.95703,-18.73047 -1.11328,-30.17578c-0.07422,-5.25781 4.32422,-9.80469 10.02344,-9.82422l119.88281,0zm-159.00391,148.67578c-30.0039,42.85547 -84.66796,60.23047 -107.10156,65.76953c-2.49219,-22.95312 -4.90234,-80.15234 25.1836,-123.12109c24.6914,-35.27344 66.33203,-53.27344 91.59375,-61.39844c0.04687,1.08203 0.09375,2.16016 0.14453,3.23828l-73.03907,100.4336c-3.24609,4.46875 -2.26171,10.72265 2.20704,13.97265c4.47656,3.25 10.72656,2.25 13.96875,-2.20703l58.96093,-81.07422c1.39063,16.0625 3.26563,32.32032 5.60157,48.53125c-4.32032,13.32813 -10.19532,25.39063 -17.51954,35.85547zm131.59375,84.19141c-13.17968,34.75 -25.45703,47.13281 -32.55468,47.13281c-6.64454,0 -19.09375,-12.26953 -32.31641,-46.85156c-19.17188,-50.15235 -30.65234,-119.87891 -35.09766,-173.14844l57.41407,0l0,150c0,5.52344 4.47656,10 10,10c5.52343,0 10,-4.47656 10,-10l0,-150.01172l57.36718,0c-4.48828,53.39453 -15.90234,123.01563 -34.8125,172.87891zm148.40625,-141.54297c30,42.84766 27.62891,100.16016 25.16407,123.13672c-22.42188,-5.51172 -76.9961,-22.8125 -107.08203,-65.78516c-7.34375,-10.48437 -13.23047,-22.58594 -17.5586,-35.96484c2.32422,-16.1836 4.19531,-32.42188 5.59375,-48.48047l59.00391,81.13281c3.2539,4.47266 9.51172,5.44922 13.96875,2.20313c4.46875,-3.2461 5.45703,-9.5 2.20703,-13.96875l-73.06641,-100.46485c0.05469,-1.07031 0.10157,-2.14062 0.14844,-3.21093c25.26172,8.11718 66.91016,26.11328 91.62109,61.40234zm-180.96093,-177.32422c27.59375,0 50,22.32422 50,50l0,16l-100,0l0,-16c0,-27.57031 22.42968,-50 50,-50zm0,0"/>
 </g>
</svg>