<svg width="489.7" height="489.7" xmlns="http://www.w3.org/2000/svg">

 <g>
  <title>background</title>
  <rect fill="none" id="canvas_background" height="402" width="582" y="-1" x="-1"/>
 </g>
 <g>
  <title>Layer 1</title>
  <g id="svg_1">
   <g id="svg_2">
    <path fill="#999999" id="svg_3" d="m52.7,134.75c29.1,0 52.7,-23.7 52.7,-52.7s-23.6,-52.8 -52.7,-52.8s-52.7,23.7 -52.7,52.7s23.7,52.8 52.7,52.8zm0,-81c15.6,0 28.2,12.7 28.2,28.2s-12.7,28.2 -28.2,28.2s-28.2,-12.7 -28.2,-28.2s12.7,-28.2 28.2,-28.2z"/>
    <path fill="#999999" id="svg_4" d="m52.7,297.55c29.1,0 52.7,-23.7 52.7,-52.7s-23.6,-52.7 -52.7,-52.7s-52.7,23.6 -52.7,52.7s23.7,52.7 52.7,52.7zm0,-80.9c15.6,0 28.2,12.7 28.2,28.2s-12.7,28.2 -28.2,28.2s-28.2,-12.6 -28.2,-28.2s12.7,-28.2 28.2,-28.2z"/>
    <path fill="#999999" id="svg_5" d="m52.7,460.45c29.1,0 52.7,-23.7 52.7,-52.7c0,-29.1 -23.7,-52.7 -52.7,-52.7s-52.7,23.7 -52.7,52.7c0,29 23.7,52.7 52.7,52.7zm0,-81c15.6,0 28.2,12.7 28.2,28.2c0,15.6 -12.7,28.2 -28.2,28.2s-28.2,-12.7 -28.2,-28.2c0,-15.5 12.7,-28.2 28.2,-28.2z"/>
    <path fill="#999999" id="svg_6" d="m175.9,94.25l301.5,0c6.8,0 12.3,-5.5 12.3,-12.3s-5.5,-12.3 -12.3,-12.3l-301.5,0c-6.8,0 -12.3,5.5 -12.3,12.3s5.5,12.3 12.3,12.3z"/>
    <path fill="#999999" id="svg_7" d="m175.9,257.15l301.5,0c6.8,0 12.3,-5.5 12.3,-12.3s-5.5,-12.3 -12.3,-12.3l-301.5,0c-6.8,0 -12.3,5.5 -12.3,12.3s5.5,12.3 12.3,12.3z"/>
    <path fill="#999999" id="svg_8" d="m175.9,419.95l301.5,0c6.8,0 12.3,-5.5 12.3,-12.3s-5.5,-12.3 -12.3,-12.3l-301.5,0c-6.8,0 -12.3,5.5 -12.3,12.3s5.5,12.3 12.3,12.3z"/>
   </g>
  </g>
  <g id="svg_9"/>
  <g id="svg_10"/>
  <g id="svg_11"/>
  <g id="svg_12"/>
  <g id="svg_13"/>
  <g id="svg_14"/>
  <g id="svg_15"/>
  <g id="svg_16"/>
  <g id="svg_17"/>
  <g id="svg_18"/>
  <g id="svg_19"/>
  <g id="svg_20"/>
  <g id="svg_21"/>
  <g id="svg_22"/>
  <g id="svg_23"/>
 </g>
</svg>