<?xml version="1.0" encoding="iso-8859-1"?>
<!-- Generator: Adobe Illustrator 19.0.0, SVG Export Plug-In . SVG Version: 6.00 Build 0)  -->
<svg version="1.1" id="Capa_1" xmlns="http://www.w3.org/2000/svg" xmlns:xlink="http://www.w3.org/1999/xlink" x="0px" y="0px"
	 viewBox="0 0 512 512" style="enable-background:new 0 0 512 512;" xml:space="preserve">
<path style="fill:#1689FC;" d="M331.987,512c-8.283,0-14.997-6.715-14.997-14.997V362.025H195.01v134.977
	c0,8.283-6.715,14.997-14.997,14.997s-14.997-6.715-14.997-14.997V347.028c0-8.283,6.715-14.997,14.997-14.997h151.974
	c8.283,0,14.997,6.715,14.997,14.997v149.975C346.984,505.285,340.269,512,331.987,512z"/>
<circle style="fill:#B7E0F6;" cx="271.994" cy="407.022" r="14.997"/>
<g>
	<path style="fill:#A4D9F5;" d="M436.969,512H75.03c-8.283,0-14.997-6.715-14.997-14.997V238.839
		c0-8.283,6.715-14.997,14.997-14.997s14.997,6.715,14.997,14.997v243.166h331.944V238.839c0-8.283,6.715-14.997,14.997-14.997
		c8.283,0,14.997,6.715,14.997,14.997v258.164C451.967,505.285,445.252,512,436.969,512z"/>
	<path style="fill:#A4D9F5;" d="M436.969,174.82c-8.283,0-14.997-6.715-14.997-14.997V60.069h-29.995v48.334
		c0,8.283-6.715,14.997-14.997,14.997c-8.283,0-14.997-6.715-14.997-14.997V45.072c0-8.283,6.715-14.997,14.997-14.997h59.99
		c8.283,0,14.997,6.715,14.997,14.997v114.752C451.967,168.105,445.252,174.82,436.969,174.82z"/>
</g>
<path style="fill:#1DE8F1;" d="M301.992,300.029h-91.985c-8.283,0-14.997-6.715-14.997-14.997v-89.985
	c0-8.283,6.715-14.997,14.997-14.997h91.985c8.283,0,14.997,6.715,14.997,14.997v89.985
	C316.989,293.314,310.274,300.029,301.992,300.029z M225.005,270.034h61.99v-59.99h-61.99V270.034z"/>
<path style="fill:#E50027;" d="M466.949,270.034c-10.728,0-21.124-3.847-29.271-10.833l-180.73-154.919L74.26,259.253
	c-18.768,16.06-47.218,13.875-63.371-4.91c-7.836-9.145-11.636-20.77-10.716-32.751c0.921-11.986,6.454-22.893,15.581-30.714
	L227.77,10.864c16.913-14.493,41.543-14.494,58.511,0.043l209.967,179.972c9.125,7.819,14.659,18.727,15.579,30.712
	c0.92,11.981-2.881,23.604-10.699,32.73C492.558,264.31,480.103,270.034,466.949,270.034z M256.999,69.575
	c3.477,0,6.953,1.204,9.76,3.61l190.442,163.244c3.479,2.983,7.222,3.609,9.748,3.609c4.392,0,8.55-1.91,11.407-5.24
	c5.377-6.276,4.649-15.764-1.628-21.142L266.763,33.684c-5.655-4.846-13.869-4.845-19.528,0.002L35.219,213.699
	c-6.226,5.335-6.953,14.824-1.569,21.107c5.378,6.256,14.878,6.988,21.158,1.615l192.49-163.287
	C250.097,70.76,253.549,69.575,256.999,69.575z"/>
<g>
</g>
<g>
</g>
<g>
</g>
<g>
</g>
<g>
</g>
<g>
</g>
<g>
</g>
<g>
</g>
<g>
</g>
<g>
</g>
<g>
</g>
<g>
</g>
<g>
</g>
<g>
</g>
<g>
</g>
</svg>
