<svg width="328.911" height="328.911" xmlns="http://www.w3.org/2000/svg">

 <g>
  <title>background</title>
  <rect fill="none" id="canvas_background" height="402" width="582" y="-1" x="-1"/>
 </g>
 <g>
  <title>Layer 1</title>
  <g id="svg_1">
   <g id="svg_2">
    <path fill="#999999" id="svg_3" d="m310.206,18.71c-12.471,-12.468 -27.549,-18.703 -45.248,-18.703l-201.004,0c-17.703,0 -32.79,6.235 -45.253,18.704c-12.466,12.466 -18.701,27.55 -18.701,45.249l0,200.991c0,17.515 6.232,32.552 18.701,45.11c12.467,12.566 27.553,18.843 45.253,18.843l201.004,0c17.699,0 32.777,-6.276 45.248,-18.843c12.47,-12.559 18.705,-27.596 18.705,-45.11l0,-200.991c0,-17.699 -6.239,-32.783 -18.705,-45.25zm-17.844,246.25c0,7.614 -2.673,14.089 -8.001,19.414c-5.324,5.332 -11.799,7.994 -19.41,7.994l-200.997,0c-7.614,0 -14.082,-2.662 -19.414,-7.994c-5.33,-5.325 -7.992,-11.8 -7.992,-19.414l0,-200.995c0,-7.613 2.662,-14.086 7.992,-19.414c5.327,-5.327 11.8,-7.994 19.414,-7.994l201.004,0c7.61,0 14.086,2.663 19.41,7.994c5.325,5.328 7.994,11.801 7.994,19.414l0,200.995z"/>
    <path fill="#999999" id="svg_4" d="m246.683,146.189l-164.454,0c-2.664,0 -4.858,0.855 -6.567,2.568c-1.711,1.713 -2.568,3.903 -2.568,6.567l0,18.271c0,2.666 0.854,4.855 2.568,6.563c1.713,1.708 3.903,2.57 6.567,2.57l164.454,0c2.662,0 4.853,-0.862 6.563,-2.57c1.712,-1.708 2.563,-3.897 2.563,-6.563l0,-18.271c0,-2.664 -0.852,-4.857 -2.563,-6.567c-1.71,-1.709 -3.901,-2.568 -6.563,-2.568z"/>
   </g>
  </g>
  <g id="svg_5"/>
  <g id="svg_6"/>
  <g id="svg_7"/>
  <g id="svg_8"/>
  <g id="svg_9"/>
  <g id="svg_10"/>
  <g id="svg_11"/>
  <g id="svg_12"/>
  <g id="svg_13"/>
  <g id="svg_14"/>
  <g id="svg_15"/>
  <g id="svg_16"/>
  <g id="svg_17"/>
  <g id="svg_18"/>
  <g id="svg_19"/>
 </g>
</svg>