<svg width="60" height="60" xmlns="http://www.w3.org/2000/svg">

 <g>
  <title>background</title>
  <rect fill="none" id="canvas_background" height="402" width="582" y="-1" x="-1"/>
 </g>
 <g>
  <title>Layer 1</title>
  <g id="svg_1">
   <path fill="#BBBBBB" id="svg_2" d="m30,16c4.411,0 8,-3.589 8,-8s-3.589,-8 -8,-8s-8,3.589 -8,8s3.589,8 8,8zm0,-14c3.309,0 6,2.691 6,6s-2.691,6 -6,6s-6,-2.691 -6,-6s2.691,-6 6,-6z"/>
   <path fill="#BBBBBB" id="svg_3" d="m30,44c-4.411,0 -8,3.589 -8,8s3.589,8 8,8s8,-3.589 8,-8s-3.589,-8 -8,-8zm0,14c-3.309,0 -6,-2.691 -6,-6s2.691,-6 6,-6s6,2.691 6,6s-2.691,6 -6,6z"/>
   <path fill="#BBBBBB" id="svg_4" d="m30,22c-4.411,0 -8,3.589 -8,8s3.589,8 8,8s8,-3.589 8,-8s-3.589,-8 -8,-8zm0,14c-3.309,0 -6,-2.691 -6,-6s2.691,-6 6,-6s6,2.691 6,6s-2.691,6 -6,6z"/>
  </g>
  <g id="svg_5"/>
  <g id="svg_6"/>
  <g id="svg_7"/>
  <g id="svg_8"/>
  <g id="svg_9"/>
  <g id="svg_10"/>
  <g id="svg_11"/>
  <g id="svg_12"/>
  <g id="svg_13"/>
  <g id="svg_14"/>
  <g id="svg_15"/>
  <g id="svg_16"/>
  <g id="svg_17"/>
  <g id="svg_18"/>
  <g id="svg_19"/>
 </g>
</svg>