<svg width="469.333" height="469.333" xmlns="http://www.w3.org/2000/svg">

 <g>
  <title>background</title>
  <rect fill="none" id="canvas_background" height="402" width="582" y="-1" x="-1"/>
 </g>
 <g>
  <title>Layer 1</title>
  <g id="svg_1">
   <g id="svg_2">
    <path fill="#666666" id="svg_3" d="m464.833,225.954l-256,-181.333c-3.229,-2.292 -7.5,-2.583 -11.063,-0.771c-3.542,1.833 -5.771,5.5 -5.771,9.479l0,96l-170.666,0c-11.77,0 -21.333,9.563 -21.333,21.334l0,128c0,11.771 9.563,21.333 21.333,21.333l170.667,0l0,96c0,3.979 2.229,7.646 5.771,9.479c1.542,0.792 3.229,1.188 4.896,1.188c2.167,0 4.333,-0.667 6.167,-1.958l256,-181.333c2.813,-2 4.5,-5.25 4.5,-8.708c-0.001,-3.46 -1.688,-6.71 -4.501,-8.71z"/>
   </g>
  </g>
  <g id="svg_4"/>
  <g id="svg_5"/>
  <g id="svg_6"/>
  <g id="svg_7"/>
  <g id="svg_8"/>
  <g id="svg_9"/>
  <g id="svg_10"/>
  <g id="svg_11"/>
  <g id="svg_12"/>
  <g id="svg_13"/>
  <g id="svg_14"/>
  <g id="svg_15"/>
  <g id="svg_16"/>
  <g id="svg_17"/>
  <g id="svg_18"/>
 </g>
</svg>