<svg width="294.842" height="294.842" xmlns="http://www.w3.org/2000/svg">

 <g>
  <title>background</title>
  <rect fill="none" id="canvas_background" height="402" width="582" y="-1" x="-1"/>
 </g>
 <g>
  <title>Layer 1</title>
  <g id="svg_1">
   <path fill="#999999" id="svg_2" d="m292.128,214.846c-2.342,-2.344 -6.143,-2.344 -8.484,0l-59.512,59.511l0,-268.357c0,-3.313 -2.687,-6 -6,-6s-6,2.687 -6,6l0,268.356l-59.513,-59.512c-2.342,-2.342 -6.142,-2.343 -8.485,0.001c-2.343,2.343 -2.343,6.142 0.001,8.485l69.755,69.754c1.171,1.171 2.707,1.757 4.242,1.757s3.071,-0.586 4.242,-1.758l69.754,-69.754c2.344,-2.342 2.344,-6.141 0,-8.483z"/>
   <path fill="#999999" id="svg_3" d="m6.956,12l180.137,0c3.313,0 6,-2.687 6,-6s-2.687,-6 -6,-6l-180.137,0c-3.313,0 -6,2.687 -6,6s2.687,6 6,6z"/>
   <path fill="#999999" id="svg_4" d="m6.956,82.228l180.137,0c3.313,0 6,-2.687 6,-6s-2.687,-6 -6,-6l-180.137,0c-3.313,0 -6,2.687 -6,6s2.687,6 6,6z"/>
   <path fill="#999999" id="svg_5" d="m6.956,152.456l180.137,0c3.313,0 6,-2.687 6,-6s-2.687,-6 -6,-6l-180.137,0c-3.313,0 -6,2.687 -6,6s2.687,6 6,6z"/>
   <path fill="#999999" id="svg_6" d="m124.438,210.685l-117.482,0c-3.313,0 -6,2.687 -6,6s2.687,6 6,6l117.482,0c3.313,0 6,-2.687 6,-6s-2.686,-6 -6,-6z"/>
   <path fill="#999999" id="svg_7" d="m124.438,280.912l-117.482,0c-3.313,0 -6,2.687 -6,6s2.687,6 6,6l117.482,0c3.313,0 6,-2.687 6,-6s-2.686,-6 -6,-6z"/>
  </g>
  <g id="svg_8"/>
  <g id="svg_9"/>
  <g id="svg_10"/>
  <g id="svg_11"/>
  <g id="svg_12"/>
  <g id="svg_13"/>
  <g id="svg_14"/>
  <g id="svg_15"/>
  <g id="svg_16"/>
  <g id="svg_17"/>
  <g id="svg_18"/>
  <g id="svg_19"/>
  <g id="svg_20"/>
  <g id="svg_21"/>
  <g id="svg_22"/>
 </g>
</svg>